<?xml version="1.0" standalone="no"?>
<svg width="64" height="64" viewBox="0 0 1024 768" version="1.1" xmlns="http://www.w3.org/2000/svg" fill="#FF9900">
  <path d="M875 427h-64v170q0 36 -25 61t-61 25h-170v64q0 44 -31 75t-76 31t-76 -31t-31 -75v-64h-170q-36 0 -61 -25t-25 -61v-162h64q48 0 82 -33.5t34 -81.5t-34 -81.5t-82 -33.5h-64v-162q0 -36 25 -61t61 -25h162v64q0 48 33.5 82t81.5 34t81.5 -34t33.5 -82v-64h162    q36 0 61 25t25 61v170h64q44 0 75 31t31 76t-31 76t-75 31z" transform="matrix(1,0,0,-1,0,768)"/>
</svg>
