<?xml version="1.0" standalone="no"?>
<svg width="64" height="64" viewBox="0 0 328 384" version="1.1" xmlns="http://www.w3.org/2000/svg" fill="#FF9900">
  <path d="M328 334v-327v0c0 -5 -3 -8 -8 -8v0v0h-312v0c-4 0 -8 4 -8 8v0v0v0v1v65v303v1c0 5 3 8 8 8h153v-66v-84v-29c0 -2 2 -4 4 -4c1 0 2 0 3 1v0l29 30h1c1 1 1 1 2 1s2 0 3 -1v0l29 -29c1 -1 2 -2 3 -2c2 0 4 2 4 4v29v84v66h29v0h1c5 0 8 -3 8 -8v-319v0c0 -5 -3 -8 -8 -8 h-1v0h-242v-19c1 -4 4 -7 8 -7h261v0c5 0 8 4 8 9v0v309h17v0c4 0 8 -4 8 -8v0z" transform="matrix(1,0,0,-1,0,384)"/>
</svg>
