<?xml version="1.0" standalone="no"?>
<svg width="64" height="64" viewBox="0 0 512 384" version="1.1" xmlns="http://www.w3.org/2000/svg" fill="#FF9900">
  <path d="M224 416c124 0 224 -100 224 -224s-100 -224 -224 -224s-224 100 -224 224s100 224 224 224zM360 56c36 36 56 85 56 136s-20 100 -56 136s-85 56 -136 56s-100 -20 -136 -56s-56 -85 -56 -136s20 -100 56 -136s85 -56 136 -56s100 20 136 56zM168 342l56 -86h-147 c17 40 50 71 91 86zM381 160h-102l72 129c21 -27 33 -60 33 -97c0 -11 -1 -22 -3 -32zM328 314l-49 -90l-78 126c8 1 15 2 23 2c40 0 76 -14 104 -38zM67 224h102l-72 -129c-21 27 -33 60 -33 97c0 11 1 22 3 32zM280 42l-56 86h147c-17 -40 -50 -71 -91 -86zM120 70l49 90 l78 -126c-8 -1 -15 -2 -23 -2c-40 0 -76 14 -104 38z" transform="matrix(1,0,0,-1,0,384)"/>
</svg>
