<?xml version="1.0" standalone="no"?>
<svg width="64" height="64" viewBox="0 0 1920 1280" version="1.1" xmlns="http://www.w3.org/2000/svg" fill="#FF9900">
  <path d="M976 0h-384c-26.4 0-63.274 15.274-81.942 33.942l-476.116 476.116c-18.668 18.668-18.668 49.214 0 67.882l412.118 412.118c18.668 18.668 49.214 18.668 67.882 0l476.118-476.118c18.666-18.666 33.94-55.54 33.94-81.94v-384c0-26.4-21.6-48-48-48zM736 384c-53.020 0-96-42.98-96-96s42.98-96 96-96 96 42.98 96 96-42.98 96-96 96z" transform=""/>
</svg>
